<svg width="720" height="180" viewBox="0 0 720 180" fill="none" xmlns="http://www.w3.org/2000/svg">
  <!-- Permetrix Logotype with icon -->
  <defs>
    <linearGradient id="lg" x1="0" y1="0" x2="720" y2="180" gradientUnits="userSpaceOnUse">
      <stop stop-color="#0B0F14"/>
      <stop offset="1" stop-color="#1B2735"/>
    </linearGradient>
    <!-- Match icon gradient exactly -->
    <linearGradient id="g" x1="0" y1="0" x2="256" y2="256" gradientUnits="userSpaceOnUse">
      <stop stop-color="#0B0F14"/>
      <stop offset="1" stop-color="#1B2735"/>
    </linearGradient>
  </defs>

  <!-- Background (transparent by default) -->
  <rect width="720" height="180" rx="24" fill="none"/>

  <!-- Icon left -->
  <g transform="translate(16,16)">
    <!-- Scale the standalone icon 256→148 to ensure exact match -->
    <g transform="scale(0.578125)">
      <rect width="256" height="256" rx="28" fill="url(#g)"/>
      <path d="M128 34c28 16 56 16 84 0v86c0 25-15 49-39 64l-45 28-45-28c-24-15-39-39-39-64V34c28 16 56 16 84 0z" fill="#0F1720" stroke="#7CC4FF" stroke-width="2"/>
      <g transform="translate(6,0)">
        <path d="M92 92h44c18 0 32 14 32 32s-14 32-32 32h-24v28h-20V92zm40 44c7.7 0 14-6.3 14-14s-6.3-14-14-14h-20v28h20z" fill="#E6F2FF"/>
      </g>
      <circle cx="128" cy="128" r="104" stroke="rgba(124,196,255,0.25)" stroke-width="2"/>
    </g>
  </g>

  <!-- Wordmark (live text) -->
  <text x="190" y="104" fill="#0B0F14" font-size="72" font-family="Inter, -apple-system, BlinkMacSystemFont, 'Segoe UI', Roboto, 'Helvetica Neue', Arial, sans-serif" font-weight="600">Permetrix</text>

  <!-- Accent underline -->
  <rect x="190" y="132" width="430" height="4" rx="2" fill="#7CC4FF"/>
</svg>

